<svg width="428" height="75" viewBox="0 0 428 75" fill="none" xmlns="http://www.w3.org/2000/svg">
<rect width="428" height="75" rx="37.5" fill="white"/>
<path d="M34.52 28.3402L29.13 32.5402C28.23 33.2402 27.5 34.7302 27.5 35.8602V43.2702C27.5 45.5902 29.39 47.4902 31.71 47.4902H43.29C45.61 47.4902 47.5 45.5902 47.5 43.2802V36.0002C47.5 34.7902 46.69 33.2402 45.7 32.5502L39.52 28.2202C38.12 27.2402 35.87 27.2902 34.52 28.3402Z" stroke="#FF6767" stroke-width="1.5" stroke-linecap="round" stroke-linejoin="round"/>
<path d="M37.5 43.4902V40.4902" stroke="#FF6767" stroke-width="1.5" stroke-linecap="round" stroke-linejoin="round"/>
<path d="M143.167 37.5V42.5C143.167 45.5 141.167 47.5 138.167 47.5H128.167C125.167 47.5 123.167 45.5 123.167 42.5V37.5C123.167 34.78 124.807 32.88 127.357 32.56C127.617 32.52 127.887 32.5 128.167 32.5H138.167C138.427 32.5 138.677 32.51 138.917 32.55C141.497 32.85 143.167 34.76 143.167 37.5Z" stroke="#FF6767" stroke-width="1.5" stroke-linecap="round" stroke-linejoin="round"/>
<path d="M138.918 32.55C138.678 32.51 138.428 32.5 138.168 32.5H128.168C127.888 32.5 127.618 32.52 127.358 32.56C127.498 32.28 127.698 32.02 127.938 31.78L131.188 28.52C132.558 27.16 134.778 27.16 136.148 28.52L137.898 30.29C138.538 30.92 138.878 31.72 138.918 32.55Z" stroke="#FF6767" stroke-width="1.5" stroke-linecap="round" stroke-linejoin="round"/>
<path d="M143.167 38H140.167C139.067 38 138.167 38.9 138.167 40C138.167 41.1 139.067 42 140.167 42H143.167" stroke="#FF6767" stroke-width="1.5" stroke-linecap="round" stroke-linejoin="round"/>
<path d="M235.153 37.5002C237.753 37.5002 238.833 36.5002 237.873 33.2202C237.223 31.0102 235.323 29.1102 233.113 28.4602C229.833 27.5002 228.833 28.5802 228.833 31.1802V34.0602C228.833 36.5002 229.833 37.5002 231.833 37.5002H235.153Z" stroke="#FF6767" stroke-width="1.5" stroke-linecap="round" stroke-linejoin="round"/>
<path d="M236.833 40.1998C235.903 44.8298 231.463 48.1898 226.413 47.3698C222.623 46.7598 219.573 43.7098 218.953 39.9198C218.143 34.8898 221.483 30.4498 226.093 29.5098" stroke="#FF6767" stroke-width="1.5" stroke-linecap="round" stroke-linejoin="round"/>
<rect x="303" y="15.5" width="109" height="44" rx="22" fill="#DC2626"/>
<path d="M335 37.5C337.761 37.5 340 35.2614 340 32.5C340 29.7386 337.761 27.5 335 27.5C332.239 27.5 330 29.7386 330 32.5C330 35.2614 332.239 37.5 335 37.5Z" fill="white"/>
<path d="M335 40C329.99 40 325.91 43.36 325.91 47.5C325.91 47.78 326.13 48 326.41 48H343.59C343.87 48 344.09 47.78 344.09 47.5C344.09 43.36 340.01 40 335 40Z" fill="white"/>
<path d="M354.061 41.5H355.373V38.6113H357.354C359.012 38.6113 360.16 37.4805 360.16 35.8281V35.8164C360.16 34.1582 359.012 33.0449 357.354 33.0449H354.061V41.5ZM357.025 34.1523C358.162 34.1523 358.824 34.7676 358.824 35.8223V35.834C358.824 36.8945 358.162 37.5098 357.025 37.5098H355.373V34.1523H357.025ZM361.807 41.5H363.079V37.6973C363.079 36.7773 363.741 36.1797 364.713 36.1797C364.954 36.1797 365.17 36.209 365.399 36.2559V35.084C365.27 35.0547 365.047 35.0254 364.842 35.0254C363.993 35.0254 363.401 35.4238 363.172 36.0977H363.079V35.1367H361.807V41.5ZM369.243 41.623C371.106 41.623 372.249 40.375 372.249 38.3242V38.3125C372.249 36.2617 371.1 35.0137 369.243 35.0137C367.38 35.0137 366.231 36.2676 366.231 38.3125V38.3242C366.231 40.375 367.374 41.623 369.243 41.623ZM369.243 40.5625C368.147 40.5625 367.532 39.7363 367.532 38.3242V38.3125C367.532 36.9004 368.147 36.0742 369.243 36.0742C370.333 36.0742 370.954 36.9004 370.954 38.3125V38.3242C370.954 39.7305 370.333 40.5625 369.243 40.5625ZM374.318 41.5H375.583V36.1387H376.984V35.1367H375.571V34.5273C375.571 33.8828 375.847 33.543 376.55 33.543C376.749 33.543 376.919 33.5547 377.036 33.5723V32.6406C376.82 32.6055 376.573 32.582 376.286 32.582C374.962 32.582 374.318 33.2031 374.318 34.4688V35.1367H373.269V36.1387H374.318V41.5ZM379.175 34C379.609 34 379.972 33.6426 379.972 33.209C379.972 32.7695 379.609 32.4121 379.175 32.4121C378.736 32.4121 378.379 32.7695 378.379 33.209C378.379 33.6426 378.736 34 379.175 34ZM378.537 41.5H379.802V35.1367H378.537V41.5ZM381.812 41.5H383.084V32.6406H381.812V41.5ZM387.748 41.623C389.377 41.623 390.256 40.6855 390.467 39.8477L390.479 39.7949L389.254 39.8008L389.231 39.8477C389.079 40.1758 388.592 40.5801 387.778 40.5801C386.729 40.5801 386.061 39.8711 386.038 38.6523H390.549V38.207C390.549 36.2969 389.459 35.0137 387.684 35.0137C385.909 35.0137 384.76 36.3438 384.76 38.3301V38.3359C384.76 40.3516 385.885 41.623 387.748 41.623ZM387.69 36.0566C388.551 36.0566 389.19 36.6074 389.289 37.7441H386.055C386.166 36.6484 386.823 36.0566 387.69 36.0566Z" fill="white"/>
</svg>
