<svg width="428" height="75" viewBox="0 0 428 75" fill="none" xmlns="http://www.w3.org/2000/svg">
<rect width="428" height="75" rx="37.5" fill="white"/>
<path d="M34.52 28.3402L29.13 32.5402C28.23 33.2402 27.5 34.7302 27.5 35.8602V43.2702C27.5 45.5902 29.39 47.4902 31.71 47.4902H43.29C45.61 47.4902 47.5 45.5902 47.5 43.2802V36.0002C47.5 34.7902 46.69 33.2402 45.7 32.5502L39.52 28.2202C38.12 27.2402 35.87 27.2902 34.52 28.3402Z" stroke="#FF6767" stroke-width="1.5" stroke-linecap="round" stroke-linejoin="round"/>
<path d="M37.5 43.4902V40.4902" stroke="#FF6767" stroke-width="1.5" stroke-linecap="round" stroke-linejoin="round"/>
<rect x="112.333" y="15.5" width="107" height="44" rx="22" fill="#DC2626"/>
<path d="M153.783 39.1401V40.1401C153.783 40.4101 153.573 40.6301 153.293 40.6401H151.833C151.303 40.6401 150.823 40.2501 150.783 39.7301C150.753 39.4201 150.873 39.1301 151.073 38.9301C151.253 38.7401 151.503 38.6401 151.773 38.6401H153.283C153.573 38.6501 153.783 38.8701 153.783 39.1401Z" fill="white"/>
<path d="M150.324 38.1901C149.824 38.6801 149.584 39.4101 149.784 40.1701C150.044 41.1001 150.954 41.6901 151.914 41.6901H152.784C153.334 41.6901 153.784 42.1401 153.784 42.6901V42.8801C153.784 44.9501 152.094 46.6401 150.024 46.6401H138.544C136.474 46.6401 134.784 44.9501 134.784 42.8801V36.1501C134.784 34.9201 135.374 33.8301 136.284 33.1501C136.914 32.6701 137.694 32.3901 138.544 32.3901H150.024C152.094 32.3901 153.784 34.0801 153.784 36.1501V36.5901C153.784 37.1401 153.334 37.5901 152.784 37.5901H151.764C151.204 37.5901 150.694 37.8101 150.324 38.1901Z" fill="white"/>
<path d="M148.534 30.32C148.804 30.59 148.574 31.01 148.194 31.01L140.514 31C140.074 31 139.844 30.46 140.164 30.15L141.784 28.52C143.154 27.16 145.374 27.16 146.744 28.52L148.494 30.29C148.504 30.3 148.524 30.31 148.534 30.32Z" fill="white"/>
<path d="M165.134 41.5H166.376L168.187 35.1777H168.269L170.085 41.5H171.322L173.607 33.0449H172.242L170.695 39.6191H170.613L168.837 33.0449H167.619L165.855 39.6191H165.773L164.22 33.0449H162.855L165.134 41.5ZM176.25 41.6055C177.094 41.6055 177.762 41.2422 178.137 40.5977H178.236V41.5H179.496V37.1465C179.496 35.8105 178.594 35.0137 176.994 35.0137C175.547 35.0137 174.545 35.7109 174.392 36.7539L174.387 36.7949H175.611L175.617 36.7715C175.769 36.3203 176.232 36.0625 176.935 36.0625C177.797 36.0625 178.236 36.4492 178.236 37.1465V37.709L176.514 37.8086C174.996 37.9023 174.141 38.5645 174.141 39.7012V39.7129C174.141 40.8672 175.037 41.6055 176.25 41.6055ZM175.406 39.6602V39.6484C175.406 39.0742 175.805 38.7578 176.683 38.7051L178.236 38.6055V39.1504C178.236 39.9707 177.539 40.5918 176.59 40.5918C175.904 40.5918 175.406 40.2461 175.406 39.6602ZM181.448 41.5H182.719V32.6406H181.448V41.5ZM184.77 41.5H186.042V32.6406H184.77V41.5ZM190.706 41.623C192.335 41.623 193.214 40.6855 193.425 39.8477L193.437 39.7949L192.212 39.8008L192.189 39.8477C192.036 40.1758 191.55 40.5801 190.735 40.5801C189.687 40.5801 189.019 39.8711 188.995 38.6523H193.507V38.207C193.507 36.2969 192.417 35.0137 190.642 35.0137C188.866 35.0137 187.718 36.3438 187.718 38.3301V38.3359C187.718 40.3516 188.843 41.623 190.706 41.623ZM190.648 36.0566C191.509 36.0566 192.148 36.6074 192.247 37.7441H189.013C189.124 36.6484 189.78 36.0566 190.648 36.0566ZM197.521 41.541C197.767 41.541 198.001 41.5117 198.207 41.4766V40.4629C198.031 40.4805 197.919 40.4863 197.726 40.4863C197.099 40.4863 196.841 40.2051 196.841 39.5195V36.1387H198.207V35.1367H196.841V33.5312H195.546V35.1367H194.55V36.1387H195.546V39.8242C195.546 41.0488 196.121 41.541 197.521 41.541Z" fill="white"/>
<path d="M300.487 37.5002C303.087 37.5002 304.167 36.5002 303.207 33.2202C302.557 31.0102 300.657 29.1102 298.447 28.4602C295.167 27.5002 294.167 28.5802 294.167 31.1802V34.0602C294.167 36.5002 295.167 37.5002 297.167 37.5002H300.487Z" stroke="#FF6767" stroke-width="1.5" stroke-linecap="round" stroke-linejoin="round"/>
<path d="M302.166 40.1998C301.236 44.8298 296.796 48.1898 291.746 47.3698C287.956 46.7598 284.906 43.7098 284.286 39.9198C283.476 34.8898 286.816 30.4498 291.426 29.5098" stroke="#FF6767" stroke-width="1.5" stroke-linecap="round" stroke-linejoin="round"/>
<path d="M390.5 37.5C393.261 37.5 395.5 35.2614 395.5 32.5C395.5 29.7386 393.261 27.5 390.5 27.5C387.739 27.5 385.5 29.7386 385.5 32.5C385.5 35.2614 387.739 37.5 390.5 37.5Z" stroke="#FF6767" stroke-width="1.5" stroke-linecap="round" stroke-linejoin="round"/>
<path d="M399.09 47.5C399.09 43.63 395.24 40.5 390.5 40.5C385.76 40.5 381.91 43.63 381.91 47.5" stroke="#FF6767" stroke-width="1.5" stroke-linecap="round" stroke-linejoin="round"/>
</svg>
