<svg width="428" height="75" viewBox="0 0 428 75" fill="none" xmlns="http://www.w3.org/2000/svg">
<rect width="428" height="75" rx="37.5" fill="white"/>
<path d="M34.52 28.3402L29.13 32.5402C28.23 33.2402 27.5 34.7302 27.5 35.8602V43.2702C27.5 45.5902 29.39 47.4902 31.71 47.4902H43.29C45.61 47.4902 47.5 45.5902 47.5 43.2802V36.0002C47.5 34.7902 46.69 33.2402 45.7 32.5502L39.52 28.2202C38.12 27.2402 35.87 27.2902 34.52 28.3402Z" stroke="#FF6767" stroke-width="1.5" stroke-linecap="round" stroke-linejoin="round"/>
<path d="M37.5 43.4902V40.4902" stroke="#FF6767" stroke-width="1.5" stroke-linecap="round" stroke-linejoin="round"/>
<path d="M139.833 37.5V42.5C139.833 45.5 137.833 47.5 134.833 47.5H124.833C121.833 47.5 119.833 45.5 119.833 42.5V37.5C119.833 34.78 121.473 32.88 124.023 32.56C124.283 32.52 124.553 32.5 124.833 32.5H134.833C135.093 32.5 135.343 32.51 135.583 32.55C138.163 32.85 139.833 34.76 139.833 37.5Z" stroke="#FF6767" stroke-width="1.5" stroke-linecap="round" stroke-linejoin="round"/>
<path d="M135.585 32.55C135.345 32.51 135.095 32.5 134.835 32.5H124.835C124.555 32.5 124.285 32.52 124.025 32.56C124.165 32.28 124.365 32.02 124.605 31.78L127.855 28.52C129.225 27.16 131.445 27.16 132.815 28.52L134.565 30.29C135.205 30.92 135.545 31.72 135.585 32.55Z" stroke="#FF6767" stroke-width="1.5" stroke-linecap="round" stroke-linejoin="round"/>
<path d="M139.833 38H136.833C135.733 38 134.833 38.9 134.833 40C134.833 41.1 135.733 42 136.833 42H139.833" stroke="#FF6767" stroke-width="1.5" stroke-linecap="round" stroke-linejoin="round"/>
<rect x="200.667" y="15.5" width="119" height="44" rx="22" fill="#DC2626"/>
<path d="M242.337 32.4499C241.697 30.2799 239.887 28.4699 237.717 27.8299C236.067 27.3499 234.927 27.3899 234.137 27.9799C233.187 28.6899 233.077 29.9699 233.077 30.8799V33.3699C233.077 35.8299 234.197 37.0799 236.397 37.0799H239.267C240.167 37.0799 241.457 36.9699 242.167 36.0199C242.777 35.2399 242.827 34.0999 242.337 32.4499Z" fill="white"/>
<path d="M239.576 38.8601C239.316 38.5601 238.936 38.3902 238.546 38.3902H234.966C233.206 38.3902 231.776 36.9601 231.776 35.2001V31.6201C231.776 31.2301 231.606 30.8502 231.306 30.5902C231.016 30.3302 230.616 30.2102 230.236 30.2602C227.886 30.5602 225.726 31.8501 224.316 33.7901C222.896 35.7401 222.376 38.1201 222.826 40.5001C223.476 43.9401 226.226 46.6902 229.676 47.3402C230.226 47.4502 230.776 47.5002 231.326 47.5002C233.136 47.5002 234.886 46.9401 236.376 45.8502C238.316 44.4402 239.606 42.2801 239.906 39.9302C239.956 39.5401 239.836 39.1501 239.576 38.8601Z" fill="white"/>
<path d="M251.077 41.5H252.454L253.221 39.2148H256.456L257.217 41.5H258.6L255.547 33.0449H254.129L251.077 41.5ZM254.786 34.5273H254.885L256.104 38.1602H253.573L254.786 34.5273ZM260.024 41.5H261.296V37.7676C261.296 36.7422 261.876 36.1035 262.808 36.1035C263.739 36.1035 264.179 36.625 264.179 37.6797V41.5H265.444V37.3809C265.444 35.8633 264.659 35.0137 263.235 35.0137C262.309 35.0137 261.7 35.4238 261.39 36.1035H261.296V35.1367H260.024V41.5ZM269.066 41.6055C269.909 41.6055 270.577 41.2422 270.952 40.5977H271.052V41.5H272.312V37.1465C272.312 35.8105 271.409 35.0137 269.81 35.0137C268.363 35.0137 267.361 35.7109 267.208 36.7539L267.202 36.7949H268.427L268.433 36.7715C268.585 36.3203 269.048 36.0625 269.751 36.0625C270.613 36.0625 271.052 36.4492 271.052 37.1465V37.709L269.329 37.8086C267.812 37.9023 266.956 38.5645 266.956 39.7012V39.7129C266.956 40.8672 267.853 41.6055 269.066 41.6055ZM268.222 39.6602V39.6484C268.222 39.0742 268.62 38.7578 269.499 38.7051L271.052 38.6055V39.1504C271.052 39.9707 270.355 40.5918 269.406 40.5918C268.72 40.5918 268.222 40.2461 268.222 39.6602ZM274.263 41.5H275.535V32.6406H274.263V41.5ZM278.149 43.7383C279.438 43.7383 280.082 43.2637 280.621 41.7461L282.988 35.1367H281.652L280.065 40.2227H279.953L278.359 35.1367H276.988L279.297 41.5059L279.203 41.834C279.016 42.4785 278.658 42.7305 278.067 42.7305C277.92 42.7305 277.762 42.7246 277.639 42.707V43.709C277.803 43.7266 277.99 43.7383 278.149 43.7383ZM286.516 41.623C288.028 41.623 289.153 40.8203 289.153 39.6426V39.6309C289.153 38.7109 288.567 38.1895 287.342 37.9023L286.334 37.6738C285.62 37.5039 285.327 37.2578 285.327 36.8594V36.8477C285.327 36.3379 285.831 35.9922 286.528 35.9922C287.243 35.9922 287.694 36.3262 287.817 36.7715V36.7832H289.03V36.7773C288.918 35.7402 287.987 35.0137 286.534 35.0137C285.092 35.0137 284.061 35.8105 284.061 36.918V36.9238C284.061 37.8555 284.618 38.4004 285.819 38.6758L286.833 38.9102C287.571 39.0801 287.87 39.3496 287.87 39.748V39.7598C287.87 40.2812 287.325 40.6387 286.54 40.6387C285.784 40.6387 285.321 40.3164 285.163 39.8359L285.157 39.8301H283.885V39.8359C284.008 40.9023 284.981 41.623 286.516 41.623ZM291.433 34C291.866 34 292.229 33.6426 292.229 33.209C292.229 32.7695 291.866 32.4121 291.433 32.4121C290.993 32.4121 290.636 32.7695 290.636 33.209C290.636 33.6426 290.993 34 291.433 34ZM290.794 41.5H292.059V35.1367H290.794V41.5ZM296.325 41.623C297.837 41.623 298.962 40.8203 298.962 39.6426V39.6309C298.962 38.7109 298.376 38.1895 297.152 37.9023L296.144 37.6738C295.429 37.5039 295.136 37.2578 295.136 36.8594V36.8477C295.136 36.3379 295.64 35.9922 296.337 35.9922C297.052 35.9922 297.503 36.3262 297.626 36.7715V36.7832H298.839V36.7773C298.728 35.7402 297.796 35.0137 296.343 35.0137C294.902 35.0137 293.87 35.8105 293.87 36.918V36.9238C293.87 37.8555 294.427 38.4004 295.628 38.6758L296.642 38.9102C297.38 39.0801 297.679 39.3496 297.679 39.748V39.7598C297.679 40.2812 297.134 40.6387 296.349 40.6387C295.593 40.6387 295.13 40.3164 294.972 39.8359L294.966 39.8301H293.695V39.8359C293.818 40.9023 294.79 41.623 296.325 41.623Z" fill="white"/>
<path d="M390.5 37.5C393.261 37.5 395.5 35.2614 395.5 32.5C395.5 29.7386 393.261 27.5 390.5 27.5C387.739 27.5 385.5 29.7386 385.5 32.5C385.5 35.2614 387.739 37.5 390.5 37.5Z" stroke="#FF6767" stroke-width="1.5" stroke-linecap="round" stroke-linejoin="round"/>
<path d="M399.09 47.5C399.09 43.63 395.24 40.5 390.5 40.5C385.76 40.5 381.91 43.63 381.91 47.5" stroke="#FF6767" stroke-width="1.5" stroke-linecap="round" stroke-linejoin="round"/>
</svg>
