<svg width="428" height="75" viewBox="0 0 428 75" fill="none" xmlns="http://www.w3.org/2000/svg">
<rect width="428" height="75" rx="37.5" fill="white"/>
<rect x="16" y="15.5" width="105" height="44" rx="22" fill="#DC2626"/>
<path d="M56.0402 32.3202L50.2802 28.2902C48.7102 27.1902 46.3002 27.2502 44.7902 28.4202L39.7802 32.3302C38.7802 33.1102 37.9902 34.7102 37.9902 35.9702V42.8702C37.9902 45.4202 40.0602 47.5002 42.6102 47.5002H53.3902C55.9402 47.5002 58.0102 45.4302 58.0102 42.8802V36.1002C58.0102 34.7502 57.1402 33.0902 56.0402 32.3202ZM48.7502 43.5002C48.7502 43.9102 48.4102 44.2502 48.0002 44.2502C47.5902 44.2502 47.2502 43.9102 47.2502 43.5002V40.5002C47.2502 40.0902 47.5902 39.7502 48.0002 39.7502C48.4102 39.7502 48.7502 40.0902 48.7502 40.5002V43.5002Z" fill="white"/>
<path d="M67.0605 41.5H68.373V37.7559H72.7148V41.5H74.0215V33.0449H72.7148V36.6191H68.373V33.0449H67.0605V41.5ZM78.7914 41.623C80.6547 41.623 81.7973 40.375 81.7973 38.3242V38.3125C81.7973 36.2617 80.6488 35.0137 78.7914 35.0137C76.9281 35.0137 75.7797 36.2676 75.7797 38.3125V38.3242C75.7797 40.375 76.9223 41.623 78.7914 41.623ZM78.7914 40.5625C77.6957 40.5625 77.0805 39.7363 77.0805 38.3242V38.3125C77.0805 36.9004 77.6957 36.0742 78.7914 36.0742C79.8813 36.0742 80.5023 36.9004 80.5023 38.3125V38.3242C80.5023 39.7305 79.8813 40.5625 78.7914 40.5625ZM83.4148 41.5H84.6863V37.5918C84.6863 36.7598 85.2547 36.1035 86.0223 36.1035C86.7723 36.1035 87.2469 36.5605 87.2469 37.2871V41.5H88.5125V37.4746C88.5125 36.707 89.0457 36.1035 89.8543 36.1035C90.6863 36.1035 91.0848 36.5371 91.0848 37.416V41.5H92.3504V37.1113C92.3504 35.7871 91.6004 35.0137 90.3172 35.0137C89.4324 35.0137 88.7 35.4648 88.3777 36.1504H88.2781C87.9969 35.4648 87.3816 35.0137 86.5145 35.0137C85.6824 35.0137 85.0613 35.418 84.7801 36.1152H84.6863V35.1367H83.4148V41.5ZM96.8977 41.623C98.5266 41.623 99.4055 40.6855 99.6164 39.8477L99.6281 39.7949L98.4035 39.8008L98.3801 39.8477C98.2277 40.1758 97.7414 40.5801 96.927 40.5801C95.8781 40.5801 95.2102 39.8711 95.1867 38.6523H99.6984V38.207C99.6984 36.2969 98.6086 35.0137 96.8332 35.0137C95.0578 35.0137 93.9094 36.3438 93.9094 38.3301V38.3359C93.9094 40.3516 95.0344 41.623 96.8977 41.623ZM96.8391 36.0566C97.7004 36.0566 98.3391 36.6074 98.4387 37.7441H95.2043C95.3156 36.6484 95.9719 36.0566 96.8391 36.0566Z" fill="white"/>
<path d="M206.5 37.5V42.5C206.5 45.5 204.5 47.5 201.5 47.5H191.5C188.5 47.5 186.5 45.5 186.5 42.5V37.5C186.5 34.78 188.14 32.88 190.69 32.56C190.95 32.52 191.22 32.5 191.5 32.5H201.5C201.76 32.5 202.01 32.51 202.25 32.55C204.83 32.85 206.5 34.76 206.5 37.5Z" stroke="#FF6767" stroke-width="1.5" stroke-linecap="round" stroke-linejoin="round"/>
<path d="M202.251 32.55C202.011 32.51 201.761 32.5 201.501 32.5H191.501C191.221 32.5 190.951 32.52 190.691 32.56C190.831 32.28 191.031 32.02 191.271 31.78L194.521 28.52C195.891 27.16 198.111 27.16 199.481 28.52L201.231 30.29C201.871 30.92 202.211 31.72 202.251 32.55Z" stroke="#FF6767" stroke-width="1.5" stroke-linecap="round" stroke-linejoin="round"/>
<path d="M206.5 38H203.5C202.4 38 201.5 38.9 201.5 40C201.5 41.1 202.4 42 203.5 42H206.5" stroke="#FF6767" stroke-width="1.5" stroke-linecap="round" stroke-linejoin="round"/>
<path d="M299.82 37.5002C302.42 37.5002 303.5 36.5002 302.54 33.2202C301.89 31.0102 299.99 29.1102 297.78 28.4602C294.5 27.5002 293.5 28.5802 293.5 31.1802V34.0602C293.5 36.5002 294.5 37.5002 296.5 37.5002H299.82Z" stroke="#FF6767" stroke-width="1.5" stroke-linecap="round" stroke-linejoin="round"/>
<path d="M301.5 40.1998C300.57 44.8298 296.13 48.1898 291.08 47.3698C287.29 46.7598 284.24 43.7098 283.62 39.9198C282.81 34.8898 286.15 30.4498 290.76 29.5098" stroke="#FF6767" stroke-width="1.5" stroke-linecap="round" stroke-linejoin="round"/>
<path d="M390.5 37.5C393.261 37.5 395.5 35.2614 395.5 32.5C395.5 29.7386 393.261 27.5 390.5 27.5C387.739 27.5 385.5 29.7386 385.5 32.5C385.5 35.2614 387.739 37.5 390.5 37.5Z" stroke="#FF6767" stroke-width="1.5" stroke-linecap="round" stroke-linejoin="round"/>
<path d="M399.09 47.5C399.09 43.63 395.24 40.5 390.5 40.5C385.76 40.5 381.91 43.63 381.91 47.5" stroke="#FF6767" stroke-width="1.5" stroke-linecap="round" stroke-linejoin="round"/>
</svg>
